<?xml version="1.0" encoding="UTF-8" standalone="no"?>
<!-- Created with Inkscape (http://www.inkscape.org/) -->

<svg
   inkscape:export-ydpi="96"
   inkscape:export-xdpi="96"
   inkscape:export-filename="favicon-32x32.png"
   sodipodi:docname="favicon_new.svg"
   inkscape:version="1.1.2 (b8e25be833, 2022-02-05)"
   id="svg5"
   version="1.1"
   viewBox="0 0 8.4666667 8.4666667"
   height="32"
   width="32"
   xmlns:inkscape="http://www.inkscape.org/namespaces/inkscape"
   xmlns:sodipodi="http://sodipodi.sourceforge.net/DTD/sodipodi-0.dtd"
   xmlns="http://www.w3.org/2000/svg"
   xmlns:svg="http://www.w3.org/2000/svg">
  <sodipodi:namedview
     id="namedview7"
     pagecolor="#ffffff"
     bordercolor="#666666"
     borderopacity="1.0"
     inkscape:pageshadow="2"
     inkscape:pageopacity="0.0"
     inkscape:pagecheckerboard="0"
     inkscape:document-units="px"
     showgrid="false"
     units="px"
     inkscape:zoom="17.576923"
     inkscape:cx="25.288841"
     inkscape:cy="28.161927"
     inkscape:window-width="3840"
     inkscape:window-height="2066"
     inkscape:window-x="-11"
     inkscape:window-y="-11"
     inkscape:window-maximized="1"
     inkscape:current-layer="layer1" />
  <defs
     id="defs2" />
  <g
     inkscape:label="Vrstva 1"
     inkscape:groupmode="layer"
     id="layer1">
    <path
       style="fill:#ffb900;fill-opacity:1;stroke:#000000;stroke-width:0.26458333;stroke-miterlimit:4;stroke-dasharray:none;stroke-opacity:1"
       d="m 4.2267506,0.16450117 a 4.1545781,4.0687894 0 0 0 -0.242137,0.0089 L 3.4250396,1.975765 1.8664086,0.88608227 A 4.1545781,4.0687894 0 0 0 1.5048276,1.1632711 l 0.660194,1.6707621 -1.82478495,-0.033695 a 4.1545781,4.0687894 0 0 0 -0.149956,0.4774515 L 1.6924346,4.2123485 0.18768465,5.1786949 a 4.1545781,4.0687894 0 0 0 0.144113,0.4647363 L 2.1877426,5.5836702 1.5320916,7.3262723 a 4.1545781,4.0687894 0 0 0 0.330422,0.2517597 l 1.598878,-1.1538948 0.614754,1.8722968 a 4.1545781,4.0687894 0 0 0 0.150605,0.0057 4.1545781,4.0687894 0 0 0 0.218117,-0.0083 l 0.583594,-1.8805647 1.613159,1.1278287 a 4.1545781,4.0687894 0 0 0 0.329773,-0.2568454 l -0.682915,-1.7292515 1.852699,0.034331 A 4.1545781,4.0687894 0 0 0 8.2800976,5.121417 L 6.7610656,4.1767463 8.2502366,3.2199362 A 4.1545781,4.0687894 0 0 0 8.0937896,2.7462993 l -1.828032,0.059125 0.634878,-1.6860201 A 4.1545781,4.0687894 0 0 0 6.5358086,0.85111577 l -1.5437,1.11384133 -0.590085,-1.79600563 a 4.1545781,4.0687894 0 0 0 -0.175273,-0.00445 z"
       id="path33" />
    <path
       id="path3622"
       style="fill:#00aaaa;fill-opacity:1;stroke:#000000;stroke-width:0.264612;stroke-miterlimit:4;stroke-dasharray:none;stroke-opacity:1"
       d="m 4.2333347,2.2489739 a 1.984134,1.9841332 0 0 0 -0.238303,0.015987 L 3.8681369,2.6216655 A 1.6528715,1.6528708 0 0 0 3.3525636,2.8359883 L 3.0088481,2.6726235 A 1.984134,1.9841332 0 0 0 2.6726261,3.0088454 L 2.835991,3.352561 A 1.6528715,1.6528708 0 0 0 2.6216683,3.8681345 L 2.2649637,3.9950293 a 1.984134,1.9841332 0 0 0 -0.015988,0.238303 1.984134,1.9841332 0 0 0 0.015988,0.238303 L 2.6216683,4.5985301 A 1.6528715,1.6528708 0 0 0 2.835991,5.1141036 L 2.6726261,5.4578192 a 1.984134,1.9841332 0 0 0 0.336222,0.3362219 L 3.3525636,5.6306765 a 1.6528715,1.6528708 0 0 0 0.5155733,0.2143224 l 0.1268948,0.3567049 a 1.984134,1.9841332 0 0 0 0.238303,0.015987 1.984134,1.9841332 0 0 0 0.2383029,-0.015987 L 4.5985323,5.8449989 A 1.6528715,1.6528708 0 0 0 5.1141057,5.6306765 L 5.4578212,5.7940411 A 1.984134,1.9841332 0 0 0 5.794043,5.4578192 L 5.6306786,5.1141036 A 1.6528715,1.6528708 0 0 0 5.8450008,4.5985301 L 6.2017056,4.4716353 A 1.984134,1.9841332 0 0 0 6.2176924,4.2333323 1.984134,1.9841332 0 0 0 6.202705,3.995529 L 5.8450008,3.8681345 A 1.6528715,1.6528708 0 0 0 5.6316775,3.3515617 L 5.794043,3.0088454 A 1.984134,1.9841332 0 0 0 5.4578212,2.6726235 L 5.115105,2.8349891 A 1.6528715,1.6528708 0 0 0 4.5985323,2.6216656 L 4.4711379,2.2639615 A 1.984134,1.9841332 0 0 0 4.2333347,2.2489739 Z m 0,1.3443879 A 0.6402112,0.64021148 0 0 1 4.8733051,4.2333323 0.6402112,0.64021148 0 0 1 4.2333347,4.873303 0.6402112,0.64021148 0 0 1 3.5933642,4.2333323 0.6402112,0.64021148 0 0 1 4.2333347,3.5933618 Z" />
    <path
       sodipodi:type="star"
       style="fill:#00aaaa;fill-opacity:1;stroke:#000000;stroke-width:1.00157;stroke-opacity:1"
       id="path3728"
       inkscape:flatsided="false"
       sodipodi:sides="6"
       sodipodi:cx="-112.80288"
       sodipodi:cy="-18.585922"
       sodipodi:r1="19.754498"
       sodipodi:r2="9.8772488"
       sodipodi:arg1="0.46911204"
       sodipodi:arg2="0.99271082"
       inkscape:rounded="0"
       inkscape:randomized="0"
       d="m -95.182459,-9.6550239 -12.223281,-0.6586011 -4.32131,11.4528839 -5.54128,-10.9149708 -12.07914,1.9840725 6.682,-10.2563696 -7.75783,-9.468812 12.22328,0.658601 4.32132,-11.452883 5.54127,10.91497 12.079146,-1.984072 -6.682006,10.25637 z"
       transform="scale(0)" />
  </g>
</svg>
